<svg version="1.1" id="Слой_1" xmlns="http://www.w3.org/2000/svg" x="0" y="0" viewBox="0 0 50.1 42.1" xml:space="preserve"><style>.st0{fill:none}.st1{fill:#fff}</style><path class="st0" d="M25.3 11.2c-6.5 0-8.8.9-9.6 1.6-1.7 1.5-1.7 5.2-1.4 9 0 .3 0 .7.1 1 .1 2.5.3 5.8 1.4 6.8 1.2 1.1 4.7 1.5 10.5 1.4 3.1-.1 6.6-.2 8-1.4.9-.8 1.2-3.7 1.4-5.8 0-.3.1-.6.1-.9.6-5.1 0-8.6-1.5-10-1.7-1.6-5.9-1.7-9-1.7zm-.5 16.7c-3.7 0-6.6-3-6.6-6.6 0-3.7 3-6.6 6.6-6.6s6.6 3 6.6 6.6c0 3.6-3 6.6-6.6 6.6zm7.2-11c-1.1 0-2.1-.9-2.1-2.1 0-1.1.9-2.1 2.1-2.1s2.1.9 2.1 2.1c0 1.2-1 2.1-2.1 2.1z"/><path class="st0" d="M24.8 17.6c-2 0-3.7 1.7-3.7 3.7s1.7 3.7 3.7 3.7 3.7-1.7 3.7-3.7c-.1-2.1-1.7-3.7-3.7-3.7z"/><path class="st1" d="M24.8 14.7c-3.7 0-6.6 3-6.6 6.6 0 3.7 3 6.6 6.6 6.6 3.7 0 6.6-3 6.6-6.6 0-3.7-3-6.6-6.6-6.6zm3.6 6.6c0 2-1.7 3.7-3.7 3.7S21 23.3 21 21.3s1.7-3.7 3.7-3.7c2.1 0 3.7 1.6 3.7 3.7zm3.6-8.5c-1.1 0-2.1.9-2.1 2.1 0 1.1.9 2.1 2.1 2.1s2.1-.9 2.1-2.1c0-1.2-1-2.1-2.1-2.1z"/><path class="st1" d="M36.3 10.8c-2.3-2-6.6-2.3-11-2.3-6.3 0-9.9.7-11.7 2.4-2.6 2.4-2.5 6.9-2.3 11 0 .3 0 .6.1 1 .2 3.4.4 6.9 2.2 8.5 1.7 1.5 4.9 2.2 10.5 2.2h2.2c3.8-.1 7.8-.2 10-2.2 1.6-1.5 2-4.5 2.3-7.5 0-.3.1-.6.1-.9.6-6.1-.1-10.1-2.4-12.2zm-.6 11.9c0 .3-.1.6-.1.9-.2 2.1-.5 5-1.4 5.8-1.3 1.2-4.9 1.3-8 1.4-5.8.1-9.3-.3-10.5-1.4-1-.9-1.2-4.3-1.4-6.8 0-.3 0-.7-.1-1-.2-3.8-.2-7.5 1.4-9 .8-.7 3.1-1.6 9.6-1.6 3.1 0 7.3.2 8.9 1.6 1.6 1.5 2.2 5.1 1.6 10.1z"/></svg>