<svg xmlns="http://www.w3.org/2000/svg" viewBox="0 0 20.2 17"><path d="M14.7 4.2c-1.6-.8-9-.9-9.5.3-.8 1.9-.5 7.3.4 8.3.6.8 2.5.6 4.1.6 1.8 0 4.6 0 5.1-.4.9-.9.4-2.4.5-4.5 0-2.4.1-3.9-.6-4.3zm-1.2 4.5c-.1.1-.3.2-.4.2h-1.3c0 .2 0 .8.1 1.8.1.5.1 1 0 1.5 0 .1-.1.3-.2.3-.1.1-.3.1-.4.1-.1 0-.3-.1-.4-.2-.1-.1-.1-.3-.1-.4v-1.3c-.1-1.1-.1-1.7-.1-1.9-.3 0-.5-.1-.8-.1-.1 0-.3-.1-.4-.2-.1-.2-.1-.3-.1-.5 0-.1.1-.3.2-.3.1-.1.3-.1.4-.1.2 0 .4.1.6.1v-.3c0-.3.1-.6.2-.8l.3-.9c.1-.2.2-.3.3-.4.3-.2.6-.3.9-.2.2.1.5.2.6.5.1.2.3.5.3.7.1.1 0 .3 0 .4l-.3.3h-.4l-.3-.3v-.1c-.1.3-.2.7-.2 1.1V8h1.3c.2 0 .3.1.4.2 0-.1.1.3-.2.5.1 0 .1 0 0 0z" fill="#fff"/></svg>